# xmcd
#
# Track frame offsets: 
#        150
#        25013
#        42292
#        75889
#        92751
#        108359
#        150606
#        168916
#        195815
#        220549
#
# Disc length: 3324 seconds
#
# Revision: 0
# Processed by: cddbd v1.5.2PL0 Copyright (c) Steve Scherf et al.
# Submitted via: ExactAudioCopy v0.99pb3
#
DISCID=620cfa0a
DTITLE=North Mississippi Allstars - Live EP 11.11.05
DYEAR=2006
DGENRE=Blues
TTITLE0=No Mo
TTITLE1=Bang Bang Lulu
TTITLE2=Mean Ol' Wind Died Down
TTITLE3=Run On
TTITLE4=Teasin' Brown
TTITLE5=Ship
TTITLE6=Moonshine
TTITLE7=Stompin My Foot
TTITLE8=Horse Shoe
TTITLE9=Pychedelic Sex Machine
EXTD=
EXTT0=
EXTT1=
EXTT2=
EXTT3=
EXTT4=
EXTT5=
EXTT6=
EXTT7=
EXTT8=
EXTT9=
PLAYORDER=
